<svg width="9" height="9" viewBox="0 0 9 9" fill="none" xmlns="http://www.w3.org/2000/svg">
<path d="M1.81758 14.5C1.61896 14.5011 1.42449 14.4431 1.25897 14.3333C1.09345 14.2235 0.964379 14.0669 0.888212 13.8835C0.812046 13.7 0.792234 13.4981 0.831304 13.3033C0.870374 13.1086 0.966554 12.9299 1.10758 12.79L6.40358 7.50199L1.10858 2.21399C0.931018 2.02381 0.834221 1.77212 0.838592 1.51196C0.842963 1.2518 0.948161 1.00351 1.13202 0.819392C1.31587 0.635278 1.56402 0.52973 1.82417 0.524993C2.08432 0.520255 2.33615 0.616697 2.52658 0.793994L8.52258 6.79199C8.70883 6.97936 8.81338 7.23281 8.81338 7.49699C8.81338 7.76118 8.70883 8.01463 8.52258 8.20199L2.52658 14.2C2.43412 14.2944 2.32384 14.3695 2.20214 14.421C2.08044 14.4725 1.94973 14.4994 1.81758 14.5Z" fill="#707070"/>
</svg>
